<svg width="64" height="64" viewBox="0 0 64 64" fill="none" xmlns="http://www.w3.org/2000/svg">
<path d="M23 1H55V63H9V15L23 1Z" stroke="white" stroke-width="2" stroke-miterlimit="10"/>
<path d="M9 15H23V1" stroke="white" stroke-width="2" stroke-miterlimit="10"/>
<path d="M18.978 54.114C18.978 53.162 19.1927 52.308 19.622 51.552C20.0514 50.7867 20.6347 50.1893 21.372 49.76C22.1187 49.3307 22.9447 49.116 23.85 49.116C24.914 49.116 25.8427 49.3727 26.636 49.886C27.4294 50.3993 28.008 51.1273 28.372 52.07H26.846C26.5754 51.482 26.1834 51.0293 25.67 50.712C25.166 50.3947 24.5594 50.236 23.85 50.236C23.1687 50.236 22.5574 50.3947 22.016 50.712C21.4747 51.0293 21.05 51.482 20.742 52.07C20.434 52.6487 20.28 53.33 20.28 54.114C20.28 54.8887 20.434 55.57 20.742 56.158C21.05 56.7367 21.4747 57.1847 22.016 57.502C22.5574 57.8193 23.1687 57.978 23.85 57.978C24.5594 57.978 25.166 57.824 25.67 57.516C26.1834 57.1987 26.5754 56.746 26.846 56.158H28.372C28.008 57.0913 27.4294 57.8147 26.636 58.328C25.8427 58.832 24.914 59.084 23.85 59.084C22.9447 59.084 22.1187 58.874 21.372 58.454C20.6347 58.0247 20.0514 57.432 19.622 56.676C19.1927 55.92 18.978 55.066 18.978 54.114Z" fill="white"/>
<path d="M33.3625 59.098C32.7185 59.098 32.1398 58.986 31.6265 58.762C31.1225 58.5287 30.7258 58.2113 30.4365 57.81C30.1471 57.3993 29.9978 56.928 29.9885 56.396H31.3465C31.3931 56.8533 31.5798 57.2407 31.9065 57.558C32.2425 57.866 32.7278 58.02 33.3625 58.02C33.9691 58.02 34.4451 57.8707 34.7905 57.572C35.1451 57.264 35.3225 56.872 35.3225 56.396C35.3225 56.0227 35.2198 55.7193 35.0145 55.486C34.8091 55.2527 34.5525 55.0753 34.2445 54.954C33.9365 54.8327 33.5211 54.702 32.9985 54.562C32.3545 54.394 31.8365 54.226 31.4445 54.058C31.0618 53.89 30.7305 53.6287 30.4505 53.274C30.1798 52.91 30.0445 52.4247 30.0445 51.818C30.0445 51.286 30.1798 50.8147 30.4505 50.404C30.7211 49.9933 31.0991 49.676 31.5845 49.452C32.0791 49.228 32.6438 49.116 33.2785 49.116C34.1931 49.116 34.9398 49.3447 35.5185 49.802C36.1065 50.2593 36.4378 50.866 36.5125 51.622H35.1125C35.0658 51.2487 34.8698 50.922 34.5245 50.642C34.1791 50.3527 33.7218 50.208 33.1525 50.208C32.6205 50.208 32.1865 50.348 31.8505 50.628C31.5145 50.8987 31.3465 51.2813 31.3465 51.776C31.3465 52.1307 31.4445 52.42 31.6405 52.644C31.8458 52.868 32.0931 53.0407 32.3825 53.162C32.6811 53.274 33.0965 53.4047 33.6285 53.554C34.2725 53.7313 34.7905 53.9087 35.1825 54.086C35.5745 54.254 35.9105 54.52 36.1905 54.884C36.4705 55.2387 36.6105 55.724 36.6105 56.34C36.6105 56.816 36.4845 57.264 36.2325 57.684C35.9805 58.104 35.6071 58.4447 35.1125 58.706C34.6178 58.9673 34.0345 59.098 33.3625 59.098Z" fill="white"/>
<path d="M41.5793 59.098C40.9353 59.098 40.3566 58.986 39.8433 58.762C39.3393 58.5287 38.9426 58.2113 38.6533 57.81C38.3639 57.3993 38.2146 56.928 38.2053 56.396H39.5633C39.6099 56.8533 39.7966 57.2407 40.1233 57.558C40.4593 57.866 40.9446 58.02 41.5793 58.02C42.1859 58.02 42.6619 57.8707 43.0073 57.572C43.3619 57.264 43.5393 56.872 43.5393 56.396C43.5393 56.0227 43.4366 55.7193 43.2313 55.486C43.0259 55.2527 42.7693 55.0753 42.4613 54.954C42.1533 54.8327 41.7379 54.702 41.2153 54.562C40.5713 54.394 40.0533 54.226 39.6613 54.058C39.2786 53.89 38.9473 53.6287 38.6673 53.274C38.3966 52.91 38.2613 52.4247 38.2613 51.818C38.2613 51.286 38.3966 50.8147 38.6673 50.404C38.9379 49.9933 39.3159 49.676 39.8013 49.452C40.2959 49.228 40.8606 49.116 41.4953 49.116C42.4099 49.116 43.1566 49.3447 43.7353 49.802C44.3233 50.2593 44.6546 50.866 44.7293 51.622H43.3293C43.2826 51.2487 43.0866 50.922 42.7413 50.642C42.3959 50.3527 41.9386 50.208 41.3693 50.208C40.8373 50.208 40.4033 50.348 40.0673 50.628C39.7313 50.8987 39.5633 51.2813 39.5633 51.776C39.5633 52.1307 39.6613 52.42 39.8573 52.644C40.0626 52.868 40.3099 53.0407 40.5993 53.162C40.8979 53.274 41.3133 53.4047 41.8453 53.554C42.4893 53.7313 43.0073 53.9087 43.3993 54.086C43.7913 54.254 44.1273 54.52 44.4073 54.884C44.6873 55.2387 44.8273 55.724 44.8273 56.34C44.8273 56.816 44.7013 57.264 44.4493 57.684C44.1973 58.104 43.8239 58.4447 43.3293 58.706C42.8346 58.9673 42.2513 59.098 41.5793 59.098Z" fill="white"/>
<path d="M19.3608 30.638C20.5848 30.41 21.1968 29.78 21.1968 28.748C21.1968 28.292 21.1368 27.512 21.0168 26.408C20.8968 25.232 20.8368 24.38 20.8368 23.852C20.8368 22.988 21.0768 22.328 21.5568 21.872C22.0488 21.416 22.7028 21.188 23.5188 21.188H24.5628V22.61H23.8248C23.3568 22.61 23.0088 22.718 22.7808 22.934C22.5528 23.138 22.4388 23.48 22.4388 23.96C22.4388 24.308 22.4628 24.74 22.5108 25.256C22.5588 25.76 22.5888 26.102 22.6008 26.282C22.7208 27.434 22.7808 28.274 22.7808 28.802C22.7808 29.438 22.6188 29.972 22.2948 30.404C21.9828 30.824 21.4968 31.106 20.8368 31.25V31.286C21.4968 31.43 21.9828 31.718 22.2948 32.15C22.6188 32.582 22.7808 33.116 22.7808 33.752C22.7808 34.28 22.7208 35.12 22.6008 36.272C22.5888 36.452 22.5588 36.8 22.5108 37.316C22.4628 37.82 22.4388 38.246 22.4388 38.594C22.4388 39.074 22.5528 39.416 22.7808 39.62C23.0088 39.836 23.3568 39.944 23.8248 39.944H24.5628V41.366H23.5188C22.7028 41.366 22.0488 41.138 21.5568 40.682C21.0768 40.226 20.8368 39.566 20.8368 38.702C20.8368 38.174 20.8968 37.322 21.0168 36.146C21.1368 35.042 21.1968 34.262 21.1968 33.806C21.1968 32.774 20.5848 32.144 19.3608 31.916V30.638Z" fill="white"/>
<path d="M32.492 38.108C32.18 38.108 31.916 38 31.7 37.784C31.484 37.568 31.376 37.304 31.376 36.992C31.376 36.68 31.484 36.416 31.7 36.2C31.916 35.984 32.18 35.876 32.492 35.876C32.792 35.876 33.044 35.984 33.248 36.2C33.464 36.416 33.572 36.68 33.572 36.992C33.572 37.304 33.464 37.568 33.248 37.784C33.044 38 32.792 38.108 32.492 38.108ZM32.492 30.404C32.18 30.404 31.916 30.296 31.7 30.08C31.484 29.864 31.376 29.6 31.376 29.288C31.376 28.976 31.484 28.712 31.7 28.496C31.916 28.28 32.18 28.172 32.492 28.172C32.792 28.172 33.044 28.28 33.248 28.496C33.464 28.712 33.572 28.976 33.572 29.288C33.572 29.6 33.464 29.864 33.248 30.08C33.044 30.296 32.792 30.404 32.492 30.404Z" fill="white"/>
<path d="M45.6409 31.916C44.4169 32.144 43.8049 32.774 43.8049 33.806C43.8049 34.262 43.8649 35.042 43.9849 36.146C44.1049 37.322 44.1649 38.174 44.1649 38.702C44.1649 39.566 43.9189 40.226 43.4269 40.682C42.9469 41.138 42.2989 41.366 41.4829 41.366H40.4389V39.944H41.1769C41.6449 39.944 41.9929 39.836 42.2209 39.62C42.4489 39.416 42.5629 39.074 42.5629 38.594C42.5629 38.246 42.5389 37.82 42.4909 37.316C42.4429 36.8 42.4129 36.452 42.4009 36.272C42.2809 35.12 42.2209 34.28 42.2209 33.752C42.2209 33.116 42.3769 32.582 42.6889 32.15C43.0129 31.718 43.5049 31.43 44.1649 31.286V31.25C43.5049 31.106 43.0129 30.824 42.6889 30.404C42.3769 29.972 42.2209 29.438 42.2209 28.802C42.2209 28.274 42.2809 27.434 42.4009 26.282C42.4129 26.102 42.4429 25.76 42.4909 25.256C42.5389 24.74 42.5629 24.308 42.5629 23.96C42.5629 23.48 42.4489 23.138 42.2209 22.934C41.9929 22.718 41.6449 22.61 41.1769 22.61H40.4389V21.188H41.4829C42.2989 21.188 42.9469 21.416 43.4269 21.872C43.9189 22.328 44.1649 22.988 44.1649 23.852C44.1649 24.38 44.1049 25.232 43.9849 26.408C43.8649 27.512 43.8049 28.292 43.8049 28.748C43.8049 29.78 44.4169 30.41 45.6409 30.638V31.916Z" fill="white"/>
</svg>
