<svg width="64" height="64" viewBox="0 0 64 64" fill="none" xmlns="http://www.w3.org/2000/svg">
<path d="M23 1H55V63H9V15L23 1Z" stroke="white" stroke-width="2" stroke-miterlimit="10"/>
<path d="M9 15H23V1" stroke="white" stroke-width="2" stroke-miterlimit="10"/>
<path d="M22.9116 49.2419V58.9999H21.6376V54.5759H16.6676V58.9999H15.3936V49.2419H16.6676V53.5259H21.6376V49.2419H22.9116Z" fill="white"/>
<path d="M31.0929 49.2419V50.2779H28.4329V58.9999H27.1589V50.2779H24.4849V49.2419H31.0929Z" fill="white"/>
<path d="M42.5591 49.3119V58.9999H41.2851V51.7759L38.0651 58.9999H37.1691L33.9351 51.7619V58.9999H32.6611V49.3119H34.0331L37.6171 57.3199L41.2011 49.3119H42.5591Z" fill="white"/>
<path d="M45.9937 57.9639H49.4097V58.9999H44.7197V49.2419H45.9937V57.9639Z" fill="white"/>
<path d="M24.2261 35.5519L19.8881 31.4119L24.2261 27.2899H26.2961L21.9401 31.4119L26.2961 35.5519H24.2261Z" fill="white"/>
<path d="M35.8665 21.0439L30.9345 41.0599H29.3145L34.2285 21.0439H35.8665Z" fill="white"/>
<path d="M38.613 27.2899H40.683L45.039 31.4119L40.683 35.5519H38.613L42.969 31.4119L38.613 27.2899Z" fill="white"/>
</svg>
