<svg width="64" height="64" viewBox="0 0 64 64" fill="none" xmlns="http://www.w3.org/2000/svg">
<path d="M23 1H55V63H9V15L23 1Z" stroke="white" stroke-width="2" stroke-miterlimit="10"/>
<path d="M9 15H23V1" stroke="white" stroke-width="2" stroke-miterlimit="10"/>
<path d="M30.1718 49.242V56.452C30.1718 57.2547 29.9245 57.8987 29.4298 58.384C28.9352 58.86 28.2818 59.098 27.4698 59.098C26.6485 59.098 25.9905 58.8553 25.4958 58.37C25.0012 57.8753 24.7538 57.2033 24.7538 56.354H26.0278C26.0372 56.83 26.1585 57.2173 26.3918 57.516C26.6345 57.8147 26.9938 57.964 27.4698 57.964C27.9458 57.964 28.3005 57.824 28.5338 57.544C28.7672 57.2547 28.8838 56.8907 28.8838 56.452V49.242H30.1718Z" fill="white"/>
<path d="M35.7757 59.098C35.1317 59.098 34.553 58.986 34.0397 58.762C33.5357 58.5287 33.139 58.2113 32.8497 57.81C32.5603 57.3993 32.411 56.928 32.4017 56.396H33.7597C33.8063 56.8533 33.993 57.2407 34.3197 57.558C34.6557 57.866 35.141 58.02 35.7757 58.02C36.3823 58.02 36.8583 57.8707 37.2037 57.572C37.5583 57.264 37.7357 56.872 37.7357 56.396C37.7357 56.0227 37.633 55.7193 37.4277 55.486C37.2223 55.2527 36.9657 55.0753 36.6577 54.954C36.3497 54.8327 35.9343 54.702 35.4117 54.562C34.7677 54.394 34.2497 54.226 33.8577 54.058C33.475 53.89 33.1437 53.6287 32.8637 53.274C32.593 52.91 32.4577 52.4247 32.4577 51.818C32.4577 51.286 32.593 50.8147 32.8637 50.404C33.1343 49.9933 33.5123 49.676 33.9977 49.452C34.4923 49.228 35.057 49.116 35.6917 49.116C36.6063 49.116 37.353 49.3447 37.9317 49.802C38.5197 50.2593 38.851 50.866 38.9257 51.622H37.5257C37.479 51.2487 37.283 50.922 36.9377 50.642C36.5923 50.3527 36.135 50.208 35.5657 50.208C35.0337 50.208 34.5997 50.348 34.2637 50.628C33.9277 50.8987 33.7597 51.2813 33.7597 51.776C33.7597 52.1307 33.8577 52.42 34.0537 52.644C34.259 52.868 34.5063 53.0407 34.7957 53.162C35.0943 53.274 35.5097 53.4047 36.0417 53.554C36.6857 53.7313 37.2037 53.9087 37.5957 54.086C37.9877 54.254 38.3237 54.52 38.6037 54.884C38.8837 55.2387 39.0237 55.724 39.0237 56.34C39.0237 56.816 38.8977 57.264 38.6457 57.684C38.3937 58.104 38.0203 58.4447 37.5257 58.706C37.031 58.9673 36.4477 59.098 35.7757 59.098Z" fill="white"/>
<path d="M18.9038 30.638C20.1278 30.41 20.7398 29.78 20.7398 28.748C20.7398 28.292 20.6798 27.512 20.5598 26.408C20.4398 25.232 20.3798 24.38 20.3798 23.852C20.3798 22.988 20.6198 22.328 21.0998 21.872C21.5918 21.416 22.2458 21.188 23.0618 21.188H24.1058V22.61H23.3678C22.8998 22.61 22.5518 22.718 22.3238 22.934C22.0958 23.138 21.9818 23.48 21.9818 23.96C21.9818 24.308 22.0058 24.74 22.0538 25.256C22.1018 25.76 22.1318 26.102 22.1438 26.282C22.2638 27.434 22.3238 28.274 22.3238 28.802C22.3238 29.438 22.1618 29.972 21.8378 30.404C21.5258 30.824 21.0398 31.106 20.3798 31.25V31.286C21.0398 31.43 21.5258 31.718 21.8378 32.15C22.1618 32.582 22.3238 33.116 22.3238 33.752C22.3238 34.28 22.2638 35.12 22.1438 36.272C22.1318 36.452 22.1018 36.8 22.0538 37.316C22.0058 37.82 21.9818 38.246 21.9818 38.594C21.9818 39.074 22.0958 39.416 22.3238 39.62C22.5518 39.836 22.8998 39.944 23.3678 39.944H24.1058V41.366H23.0618C22.2458 41.366 21.5918 41.138 21.0998 40.682C20.6198 40.226 20.3798 39.566 20.3798 38.702C20.3798 38.174 20.4398 37.322 20.5598 36.146C20.6798 35.042 20.7398 34.262 20.7398 33.806C20.7398 32.774 20.1278 32.144 18.9038 31.916V30.638Z" fill="white"/>
<path d="M32.4671 30.386C32.1551 30.386 31.8911 30.278 31.6751 30.062C31.4591 29.846 31.3511 29.582 31.3511 29.27C31.3511 28.958 31.4591 28.694 31.6751 28.478C31.8911 28.262 32.1551 28.154 32.4671 28.154C32.7671 28.154 33.0191 28.262 33.2231 28.478C33.4391 28.694 33.5471 28.958 33.5471 29.27C33.5471 29.582 33.4391 29.846 33.2231 30.062C33.0191 30.278 32.7671 30.386 32.4671 30.386ZM33.6551 35.732L31.6391 40.574H30.5411L31.8551 35.732H33.6551Z" fill="white"/>
<path d="M46.098 31.916C44.874 32.144 44.262 32.774 44.262 33.806C44.262 34.262 44.322 35.042 44.442 36.146C44.562 37.322 44.622 38.174 44.622 38.702C44.622 39.566 44.376 40.226 43.884 40.682C43.404 41.138 42.756 41.366 41.94 41.366H40.896V39.944H41.634C42.102 39.944 42.45 39.836 42.678 39.62C42.906 39.416 43.02 39.074 43.02 38.594C43.02 38.246 42.996 37.82 42.948 37.316C42.9 36.8 42.87 36.452 42.858 36.272C42.738 35.12 42.678 34.28 42.678 33.752C42.678 33.116 42.834 32.582 43.146 32.15C43.47 31.718 43.962 31.43 44.622 31.286V31.25C43.962 31.106 43.47 30.824 43.146 30.404C42.834 29.972 42.678 29.438 42.678 28.802C42.678 28.274 42.738 27.434 42.858 26.282C42.87 26.102 42.9 25.76 42.948 25.256C42.996 24.74 43.02 24.308 43.02 23.96C43.02 23.48 42.906 23.138 42.678 22.934C42.45 22.718 42.102 22.61 41.634 22.61H40.896V21.188H41.94C42.756 21.188 43.404 21.416 43.884 21.872C44.376 22.328 44.622 22.988 44.622 23.852C44.622 24.38 44.562 25.232 44.442 26.408C44.322 27.512 44.262 28.292 44.262 28.748C44.262 29.78 44.874 30.41 46.098 30.638V31.916Z" fill="white"/>
</svg>
