<svg width="64" height="64" viewBox="0 0 64 64" fill="none" xmlns="http://www.w3.org/2000/svg">
<path d="M23 1H55V63H9V15L23 1Z" stroke="white" stroke-width="2" stroke-miterlimit="10"/>
<path d="M9 15H23V1" stroke="white" stroke-width="2" stroke-miterlimit="10"/>
<path d="M23.9942 59.0979C23.0889 59.0979 22.2629 58.8879 21.5162 58.4679C20.7696 58.0385 20.1769 57.4459 19.7382 56.6899C19.3089 55.9246 19.0942 55.0659 19.0942 54.1139C19.0942 53.1619 19.3089 52.3079 19.7382 51.5519C20.1769 50.7865 20.7696 50.1939 21.5162 49.7739C22.2629 49.3445 23.0889 49.1299 23.9942 49.1299C24.9089 49.1299 25.7396 49.3445 26.4862 49.7739C27.2329 50.1939 27.8209 50.7819 28.2502 51.5379C28.6796 52.2939 28.8942 53.1526 28.8942 54.1139C28.8942 55.0752 28.6796 55.9339 28.2502 56.6899C27.8209 57.4459 27.2329 58.0385 26.4862 58.4679C25.7396 58.8879 24.9089 59.0979 23.9942 59.0979ZM23.9942 57.9919C24.6756 57.9919 25.2869 57.8332 25.8282 57.5159C26.3789 57.1986 26.8082 56.7459 27.1162 56.1579C27.4336 55.5699 27.5922 54.8886 27.5922 54.1139C27.5922 53.3299 27.4336 52.6485 27.1162 52.0699C26.8082 51.4819 26.3836 51.0292 25.8422 50.7119C25.3009 50.3945 24.6849 50.2359 23.9942 50.2359C23.3036 50.2359 22.6876 50.3945 22.1462 50.7119C21.6049 51.0292 21.1756 51.4819 20.8582 52.0699C20.5502 52.6485 20.3962 53.3299 20.3962 54.1139C20.3962 54.8886 20.5502 55.5699 20.8582 56.1579C21.1756 56.7459 21.6049 57.1986 22.1462 57.5159C22.6969 57.8332 23.3129 57.9919 23.9942 57.9919Z" fill="white"/>
<path d="M35.4621 53.9739C35.8168 54.0299 36.1388 54.1745 36.4281 54.4079C36.7268 54.6412 36.9601 54.9305 37.1281 55.2759C37.3054 55.6212 37.3941 55.9899 37.3941 56.3819C37.3941 56.8765 37.2681 57.3246 37.0161 57.7259C36.7641 58.1179 36.3954 58.4305 35.9101 58.6639C35.4341 58.8879 34.8694 58.9999 34.2161 58.9999H30.5761V49.2419H34.0761C34.7388 49.2419 35.3034 49.3539 35.7701 49.5779C36.2368 49.7925 36.5868 50.0865 36.8201 50.4599C37.0534 50.8332 37.1701 51.2532 37.1701 51.7199C37.1701 52.2985 37.0114 52.7792 36.6941 53.1619C36.3861 53.5352 35.9754 53.8059 35.4621 53.9739ZM31.8501 53.4559H33.9921C34.5894 53.4559 35.0514 53.3159 35.3781 53.0359C35.7048 52.7559 35.8681 52.3685 35.8681 51.8739C35.8681 51.3792 35.7048 50.9919 35.3781 50.7119C35.0514 50.4319 34.5801 50.2919 33.9641 50.2919H31.8501V53.4559ZM34.1041 57.9499C34.7388 57.9499 35.2334 57.8006 35.5881 57.5019C35.9428 57.2032 36.1201 56.7879 36.1201 56.2559C36.1201 55.7146 35.9334 55.2899 35.5601 54.9819C35.1868 54.6646 34.6874 54.5059 34.0621 54.5059H31.8501V57.9499H34.1041Z" fill="white"/>
<path d="M44.076 49.2419V56.4519C44.076 57.2545 43.8287 57.8986 43.334 58.3839C42.8394 58.8599 42.186 59.0979 41.374 59.0979C40.5527 59.0979 39.8947 58.8552 39.4 58.3699C38.9054 57.8752 38.658 57.2032 38.658 56.3539H39.932C39.9414 56.8299 40.0627 57.2172 40.296 57.5159C40.5387 57.8146 40.898 57.9639 41.374 57.9639C41.85 57.9639 42.2047 57.8239 42.438 57.5439C42.6714 57.2545 42.788 56.8906 42.788 56.4519V49.2419H44.076Z" fill="white"/>
<rect width="12.6667" height="12.6667" transform="matrix(-1 0 0 1 38 28.3333)" stroke="white"/>
<circle cx="25.3333" cy="28.3333" r="6.33333" stroke="white"/>
<path d="M37.9998 22L43.4847 31.5H32.515L37.9998 22Z" stroke="white"/>
</svg>
