<svg width="64" height="64" viewBox="0 0 64 64" fill="none" xmlns="http://www.w3.org/2000/svg">
<path d="M23 1H55V63H9V15L23 1Z" stroke="white" stroke-width="2" stroke-miterlimit="10"/>
<path d="M9 15H23V1" stroke="white" stroke-width="2" stroke-miterlimit="10"/>
<path d="M17.3672 59.098C16.7232 59.098 16.1445 58.986 15.6312 58.762C15.1272 58.5286 14.7305 58.2113 14.4412 57.81C14.1518 57.3993 14.0025 56.928 13.9932 56.396H15.3512C15.3978 56.8533 15.5845 57.2406 15.9112 57.558C16.2472 57.866 16.7325 58.02 17.3672 58.02C17.9738 58.02 18.4498 57.8706 18.7952 57.572C19.1498 57.264 19.3272 56.872 19.3272 56.396C19.3272 56.0226 19.2245 55.7193 19.0192 55.486C18.8138 55.2526 18.5572 55.0753 18.2492 54.954C17.9412 54.8326 17.5258 54.702 17.0032 54.562C16.3592 54.394 15.8412 54.226 15.4492 54.058C15.0665 53.89 14.7352 53.6286 14.4552 53.274C14.1845 52.91 14.0492 52.4246 14.0492 51.818C14.0492 51.286 14.1845 50.8146 14.4552 50.404C14.7258 49.9933 15.1038 49.676 15.5892 49.452C16.0838 49.228 16.6485 49.116 17.2832 49.116C18.1978 49.116 18.9445 49.3446 19.5232 49.802C20.1112 50.2593 20.4425 50.866 20.5172 51.622H19.1172C19.0705 51.2486 18.8745 50.922 18.5292 50.642C18.1838 50.3526 17.7265 50.208 17.1572 50.208C16.6252 50.208 16.1912 50.348 15.8552 50.628C15.5192 50.8986 15.3512 51.2813 15.3512 51.776C15.3512 52.1306 15.4492 52.42 15.6452 52.644C15.8505 52.868 16.0978 53.0406 16.3872 53.162C16.6858 53.274 17.1012 53.4046 17.6332 53.554C18.2772 53.7313 18.7952 53.9086 19.1872 54.086C19.5792 54.254 19.9152 54.52 20.1952 54.884C20.4752 55.2386 20.6152 55.724 20.6152 56.34C20.6152 56.816 20.4892 57.264 20.2372 57.684C19.9852 58.104 19.6118 58.4446 19.1172 58.706C18.6225 58.9673 18.0392 59.098 17.3672 59.098Z" fill="white"/>
<path d="M26.914 59.098C26.0086 59.098 25.1826 58.888 24.436 58.468C23.6893 58.0386 23.0966 57.446 22.658 56.69C22.2286 55.9246 22.014 55.066 22.014 54.114C22.014 53.162 22.2286 52.308 22.658 51.552C23.0966 50.7866 23.6893 50.194 24.436 49.774C25.1826 49.3446 26.0086 49.13 26.914 49.13C27.8286 49.13 28.6593 49.3446 29.406 49.774C30.1526 50.194 30.7406 50.782 31.17 51.538C31.5993 52.294 31.814 53.1526 31.814 54.114C31.814 55.0753 31.5993 55.934 31.17 56.69C30.7406 57.446 30.1526 58.0386 29.406 58.468C28.6593 58.888 27.8286 59.098 26.914 59.098ZM26.914 57.992C27.5953 57.992 28.2066 57.8333 28.748 57.516C29.2986 57.1986 29.728 56.746 30.036 56.158C30.3533 55.57 30.512 54.8886 30.512 54.114C30.512 53.33 30.3533 52.6486 30.036 52.07C29.728 51.482 29.3033 51.0293 28.762 50.712C28.2206 50.3946 27.6046 50.236 26.914 50.236C26.2233 50.236 25.6073 50.3946 25.066 50.712C24.5246 51.0293 24.0953 51.482 23.778 52.07C23.47 52.6486 23.316 53.33 23.316 54.114C23.316 54.8886 23.47 55.57 23.778 56.158C24.0953 56.746 24.5246 57.1986 25.066 57.516C25.6166 57.8333 26.2326 57.992 26.914 57.992Z" fill="white"/>
<path d="M34.7698 57.964H38.1858V59H33.4958V49.242H34.7698V57.964Z" fill="white"/>
<path d="M40.8128 49.242V59H39.5388V49.242H40.8128Z" fill="white"/>
<path d="M46.0221 49.242C47.0861 49.242 48.0054 49.4426 48.7801 49.844C49.5641 50.236 50.1614 50.8006 50.5721 51.538C50.9921 52.2753 51.2021 53.1433 51.2021 54.142C51.2021 55.1406 50.9921 56.0086 50.5721 56.746C50.1614 57.474 49.5641 58.034 48.7801 58.426C48.0054 58.8086 47.0861 59 46.0221 59H42.9841V49.242H46.0221ZM46.0221 57.95C47.2821 57.95 48.2434 57.6186 48.9061 56.956C49.5688 56.284 49.9001 55.346 49.9001 54.142C49.9001 52.9286 49.5641 51.9813 48.8921 51.3C48.2294 50.6186 47.2728 50.278 46.0221 50.278H44.2581V57.95H46.0221Z" fill="white"/>
<path d="M24.9596 38.108C24.6476 38.108 24.3836 38 24.1676 37.784C23.9516 37.568 23.8436 37.304 23.8436 36.992C23.8436 36.68 23.9516 36.416 24.1676 36.2C24.3836 35.984 24.6476 35.876 24.9596 35.876C25.2596 35.876 25.5116 35.984 25.7156 36.2C25.9316 36.416 26.0396 36.68 26.0396 36.992C26.0396 37.304 25.9316 37.568 25.7156 37.784C25.5116 38 25.2596 38.108 24.9596 38.108Z" fill="white"/>
<path d="M28.7389 38.108C28.4269 38.108 28.1629 38 27.9469 37.784C27.7309 37.568 27.6229 37.304 27.6229 36.992C27.6229 36.68 27.7309 36.416 27.9469 36.2C28.1629 35.984 28.4269 35.876 28.7389 35.876C29.0389 35.876 29.2909 35.984 29.4949 36.2C29.7109 36.416 29.8189 36.68 29.8189 36.992C29.8189 37.304 29.7109 37.568 29.4949 37.784C29.2909 38 29.0389 38.108 28.7389 38.108Z" fill="white"/>
<path d="M32.5182 38.108C32.2062 38.108 31.9422 38 31.7262 37.784C31.5102 37.568 31.4022 37.304 31.4022 36.992C31.4022 36.68 31.5102 36.416 31.7262 36.2C31.9422 35.984 32.2062 35.876 32.5182 35.876C32.8182 35.876 33.0702 35.984 33.2742 36.2C33.4902 36.416 33.5982 36.68 33.5982 36.992C33.5982 37.304 33.4902 37.568 33.2742 37.784C33.0702 38 32.8182 38.108 32.5182 38.108Z" fill="white"/>
<path d="M36.2975 38.108C35.9855 38.108 35.7215 38 35.5055 37.784C35.2895 37.568 35.1815 37.304 35.1815 36.992C35.1815 36.68 35.2895 36.416 35.5055 36.2C35.7215 35.984 35.9855 35.876 36.2975 35.876C36.5975 35.876 36.8495 35.984 37.0535 36.2C37.2695 36.416 37.3775 36.68 37.3775 36.992C37.3775 37.304 37.2695 37.568 37.0535 37.784C36.8495 38 36.5975 38.108 36.2975 38.108Z" fill="white"/>
<path d="M40.0768 38.108C39.7648 38.108 39.5008 38 39.2848 37.784C39.0688 37.568 38.9608 37.304 38.9608 36.992C38.9608 36.68 39.0688 36.416 39.2848 36.2C39.5008 35.984 39.7648 35.876 40.0768 35.876C40.3768 35.876 40.6288 35.984 40.8328 36.2C41.0488 36.416 41.1568 36.68 41.1568 36.992C41.1568 37.304 41.0488 37.568 40.8328 37.784C40.6288 38 40.3768 38.108 40.0768 38.108Z" fill="white"/>
</svg>
