<svg width="64" height="64" viewBox="0 0 64 64" fill="none" xmlns="http://www.w3.org/2000/svg">
<path d="M23 1H55V63H9V15L23 1Z" stroke="white" stroke-width="2" stroke-miterlimit="10"/>
<path d="M9 15H23V1" stroke="white" stroke-width="2" stroke-miterlimit="10"/>
<path d="M23.5254 59.098C22.8814 59.098 22.3027 58.986 21.7894 58.762C21.2854 58.5286 20.8887 58.2113 20.5994 57.81C20.31 57.3993 20.1607 56.928 20.1514 56.396H21.5094C21.556 56.8533 21.7427 57.2406 22.0694 57.558C22.4054 57.866 22.8907 58.02 23.5254 58.02C24.132 58.02 24.608 57.8706 24.9534 57.572C25.308 57.264 25.4854 56.872 25.4854 56.396C25.4854 56.0226 25.3827 55.7193 25.1774 55.486C24.972 55.2526 24.7154 55.0753 24.4074 54.954C24.0994 54.8326 23.684 54.702 23.1614 54.562C22.5174 54.394 21.9994 54.226 21.6074 54.058C21.2247 53.89 20.8934 53.6286 20.6134 53.274C20.3427 52.91 20.2074 52.4246 20.2074 51.818C20.2074 51.286 20.3427 50.8146 20.6134 50.404C20.884 49.9933 21.262 49.676 21.7474 49.452C22.242 49.228 22.8067 49.116 23.4414 49.116C24.356 49.116 25.1027 49.3446 25.6814 49.802C26.2694 50.2593 26.6007 50.866 26.6754 51.622H25.2754C25.2287 51.2486 25.0327 50.922 24.6874 50.642C24.342 50.3526 23.8847 50.208 23.3154 50.208C22.7834 50.208 22.3494 50.348 22.0134 50.628C21.6774 50.8986 21.5094 51.2813 21.5094 51.776C21.5094 52.1306 21.6074 52.42 21.8034 52.644C22.0087 52.868 22.256 53.0406 22.5454 53.162C22.844 53.274 23.2594 53.4046 23.7914 53.554C24.4354 53.7313 24.9534 53.9086 25.3454 54.086C25.7374 54.254 26.0734 54.52 26.3534 54.884C26.6334 55.2386 26.7734 55.724 26.7734 56.34C26.7734 56.816 26.6474 57.264 26.3954 57.684C26.1434 58.104 25.77 58.4446 25.2754 58.706C24.7807 58.9673 24.1974 59.098 23.5254 59.098Z" fill="white"/>
<path d="M36.4742 60.848L34.5282 58.902C34.0522 59.0326 33.5668 59.098 33.0722 59.098C32.1668 59.098 31.3408 58.888 30.5942 58.468C29.8475 58.0386 29.2548 57.446 28.8162 56.69C28.3868 55.9246 28.1722 55.066 28.1722 54.114C28.1722 53.162 28.3868 52.308 28.8162 51.552C29.2548 50.7866 29.8475 50.194 30.5942 49.774C31.3408 49.3446 32.1668 49.13 33.0722 49.13C33.9868 49.13 34.8175 49.3446 35.5642 49.774C36.3108 50.194 36.8988 50.782 37.3282 51.538C37.7575 52.294 37.9722 53.1526 37.9722 54.114C37.9722 55.0473 37.7668 55.8873 37.3562 56.634C36.9455 57.3806 36.3808 57.9686 35.6622 58.398L38.1262 60.848H36.4742ZM29.4742 54.114C29.4742 54.8886 29.6282 55.57 29.9362 56.158C30.2535 56.746 30.6828 57.1986 31.2242 57.516C31.7748 57.8333 32.3908 57.992 33.0722 57.992C33.7535 57.992 34.3648 57.8333 34.9062 57.516C35.4568 57.1986 35.8862 56.746 36.1942 56.158C36.5115 55.57 36.6702 54.8886 36.6702 54.114C36.6702 53.33 36.5115 52.6486 36.1942 52.07C35.8862 51.482 35.4615 51.0293 34.9202 50.712C34.3788 50.3946 33.7628 50.236 33.0722 50.236C32.3815 50.236 31.7655 50.3946 31.2242 50.712C30.6828 51.0293 30.2535 51.482 29.9362 52.07C29.6282 52.6486 29.4742 53.33 29.4742 54.114Z" fill="white"/>
<path d="M40.9554 57.964H44.3714V59H39.6814V49.242H40.9554V57.964Z" fill="white"/>
<path d="M26.4216 31.4419C28.2126 32.0714 30.102 32.3745 32.0001 32.3367C33.8982 32.3742 35.7876 32.0709 37.5786 31.4412C38.9766 30.8959 39.4723 30.2899 39.4723 29.9412V27.2749C38.9836 27.6022 38.4592 27.873 37.9093 28.0819C36.0144 28.7604 34.0126 29.0912 32.0001 29.0584C29.9878 29.0906 27.9861 28.7604 26.0908 28.0834C25.5407 27.8744 25.0163 27.6032 24.5278 27.2749V29.9374C24.5278 30.2929 25.0251 30.8959 26.4216 31.4419Z" fill="white"/>
<path d="M26.4216 36.4708C27.0543 36.7121 27.7067 36.898 28.3716 37.0265C29.5671 37.2578 30.7824 37.3716 32.0001 37.3663C33.2177 37.3719 34.433 37.2583 35.6286 37.0273C36.2934 36.8988 36.9459 36.7128 37.5786 36.4715C38.9766 35.9263 39.4723 35.3203 39.4723 34.9715V32.429C39.0683 32.6722 38.6437 32.8792 38.2033 33.0478C36.2127 33.7526 34.1115 34.0938 32.0001 34.055C29.8884 34.0926 27.7873 33.7501 25.7968 33.044C25.3567 32.875 24.9321 32.668 24.5278 32.4253V34.97C24.5278 35.3195 25.0251 35.9233 26.4216 36.4708Z" fill="white"/>
<path d="M32.0001 42.4999C36.1251 42.4999 39.4723 41.1919 39.4723 39.5794V37.4517C39.1048 37.6732 38.7198 37.8643 38.3211 38.0232L38.2033 38.0704C36.213 38.7773 34.1119 39.1205 32.0001 39.0837C29.8882 39.1216 27.7868 38.7784 25.7968 38.0704C25.7563 38.0554 25.7173 38.0382 25.6791 38.0232C25.2804 37.8643 24.8954 37.6732 24.5278 37.4517V39.5794C24.5278 41.1919 27.8751 42.4999 32.0001 42.4999Z" fill="white"/>
<path d="M32.0001 27.341C36.1269 27.341 39.4723 26.0334 39.4723 24.4205C39.4723 22.8076 36.1269 21.5 32.0001 21.5C27.8733 21.5 24.5278 22.8076 24.5278 24.4205C24.5278 26.0334 27.8733 27.341 32.0001 27.341Z" fill="white"/>
</svg>
