<svg width="590" height="406" viewBox="0 0 590 406" fill="none" xmlns="http://www.w3.org/2000/svg">
<path d="M383.143 364.748L382.958 364.011C382.917 363.849 378.738 347.706 366.124 338.94C353.509 330.174 336.937 331.897 336.772 331.916L336.016 331.999L336.202 332.736C336.243 332.899 340.422 349.041 353.035 357.807C365.65 366.574 382.222 364.85 382.388 364.832L383.143 364.748ZM365.368 340.03C376.033 347.441 380.476 360.327 381.455 363.575C378.071 363.79 364.446 364.122 353.792 356.717C343.138 349.314 338.687 336.422 337.704 333.172C341.09 332.958 354.714 332.626 365.368 340.03Z" fill="#F1F1F1"/>
<path d="M360.788 343.948C367.15 357.859 382.138 364.633 382.138 364.633C382.138 364.633 386.811 348.852 380.449 334.94C374.087 321.029 359.099 314.255 359.099 314.255C359.099 314.255 354.426 330.036 360.788 343.948Z" fill="#F1F1F1"/>
<path d="M522.285 359.718C529.145 338.601 529.706 314.603 518.113 295.012C513.184 286.684 506.257 279.492 497.761 274.791C487.961 269.368 476.648 267.595 465.58 267.35C441.515 266.819 417.614 272.637 393.546 269.629C382.748 268.28 371.977 265.252 362.721 259.381C354.718 254.305 347.771 247.202 343.672 238.587C339.677 230.366 338.774 220.98 341.126 212.147C343.4 203.792 348.754 195.981 356.582 191.981C363.695 188.347 372.427 188.25 379.776 191.256C387.683 194.49 393.376 201.178 394.587 209.739C396.098 220.418 391.293 230.984 385.945 239.923C380.798 248.527 374.557 256.602 366.974 263.198C359.63 269.587 350.968 274.623 341.442 276.86C332.404 278.983 322.656 278.796 313.871 275.66C304.807 272.415 297.252 265.947 292.645 257.488C287.502 248.178 285.706 237.421 285.883 226.882C286.091 214.435 288.716 202.114 291.059 189.935C293.435 177.582 295.988 165.266 298.719 152.986C300.049 147 301.422 141.023 302.837 135.056C303.132 133.811 305.05 134.338 304.755 135.586C299.128 159.334 293.868 183.273 289.877 207.358C287.983 218.79 286.796 230.648 289.172 242.104C291.175 251.764 295.671 261.129 303.359 267.52C318.032 279.717 339.917 278.173 355.621 268.969C364.091 264.005 371.275 257.053 377.224 249.285C383.373 241.255 389.1 232.071 391.695 222.213C393.035 217.123 393.417 211.69 391.869 206.6C390.675 202.684 388.331 199.219 385.143 196.654C379.171 191.804 370.728 190.063 363.266 191.697C354.857 193.538 348.353 199.871 344.862 207.575C341.238 215.714 340.815 224.923 343.678 233.36C346.688 242.266 352.932 249.879 360.438 255.414C368.982 261.716 379.165 265.29 389.563 267.052C412.892 271.003 436.327 265.836 459.7 265.361C470.351 265.145 481.268 265.965 491.335 269.691C500.303 273.035 508.223 278.702 514.286 286.113C527.587 302.262 531.269 323.693 528.121 344.009C527.251 349.518 525.94 354.948 524.202 360.248C523.808 361.461 521.887 360.941 522.285 359.719L522.285 359.718Z" fill="#E5E5E5"/>
<path d="M517.68 354.916H530.274V364.867H517.68V354.916Z" fill="#22223B"/>
<path d="M303.666 135.3H79.037C36.4842 135.3 1.98828 111.025 1.98828 68.4343V68.4341C1.98828 25.8436 36.4842 8.0918 79.037 8.0918H149.568C234.674 8.0918 303.666 50.1188 303.666 135.3V135.3Z" fill="white"/>
<path d="M79.0372 137.29H305.655V135.3C305.655 94.5447 289.775 60.9567 259.733 38.1669C232.08 17.1898 193.986 6.10168 149.569 6.10168H79.0372C56.2537 6.10168 37.0202 11.136 23.4158 20.6608C7.87817 31.5387 0 47.612 0 68.4342C0 89.3099 8.05637 106.927 23.298 119.38C37.4331 130.93 57.2282 137.29 79.0372 137.29ZM301.665 133.31H79.0372C34.1414 133.31 3.97705 107.238 3.97705 68.4342C3.97705 15.7681 56.4689 10.0823 79.0372 10.0823H149.569C222.573 10.0823 300.546 42.5002 301.665 133.31H301.665Z" fill="#E5E5E5"/>
<path d="M174.283 47.8452H200.815V54.2382H174.283V47.8452Z" fill="#22223B"/>
<path d="M82.4045 47.8452H91.7397V54.2382H82.4045V47.8452Z" fill="#22223B"/>
<path d="M63.734 47.8452H73.0693V54.2382H63.734V47.8452Z" fill="#22223B"/>
<path d="M101.566 47.8452H164.948V54.2382H101.566V47.8452Z" fill="#22223B"/>
<path d="M207.694 89.1536H234.226V95.5465H207.694V89.1536Z" fill="#22223B"/>
<path d="M115.815 89.1536H125.15V95.5465H115.815V89.1536Z" fill="#22223B"/>
<path d="M97.1447 89.1536H106.48V95.5465H97.1447V89.1536Z" fill="#22223B"/>
<path d="M134.977 89.1536H198.359V95.5465H134.977V89.1536Z" fill="#22223B"/>
<path d="M98.1273 62.1066H124.659V68.4995H98.1273V62.1066Z" fill="#22223B"/>
<path d="M62.2601 62.1066H88.792V68.4995H62.2601V62.1066Z" fill="#22223B"/>
<path d="M43.5896 62.1066H52.9248V68.4995H43.5896V62.1066Z" fill="#22223B"/>
<path d="M206.22 62.1066H215.556V68.4995H206.22V62.1066Z" fill="#22223B"/>
<path d="M133.503 62.1066H196.885V68.4995H133.503V62.1066Z" fill="#22223B"/>
<path d="M153.156 75.876H179.688V82.269H153.156V75.876Z" fill="#22223B"/>
<path d="M189.024 75.876H215.556V82.269H189.024V75.876Z" fill="#22223B"/>
<path d="M43.5896 75.876H52.9248V82.269H43.5896V75.876Z" fill="#22223B"/>
<path d="M62.2599 75.876H71.5952V82.269H62.2599V75.876Z" fill="#22223B"/>
<path d="M80.9307 75.876H144.312V82.269H80.9307V75.876Z" fill="#22223B"/>
<path d="M336.794 365.531H589.337C589.513 365.531 589.682 365.461 589.806 365.336C589.93 365.212 590 365.043 590 364.867C590 364.691 589.93 364.523 589.806 364.398C589.682 364.274 589.513 364.204 589.337 364.204H336.794C336.619 364.204 336.45 364.274 336.326 364.398C336.201 364.523 336.131 364.691 336.131 364.867C336.131 365.043 336.201 365.212 336.326 365.336C336.45 365.461 336.619 365.531 336.794 365.531Z" fill="#CBCBCB"/>
<path d="M436.883 406H514.436C514.612 406 514.78 405.93 514.904 405.806C515.029 405.681 515.099 405.512 515.099 405.337C515.099 405.161 515.029 404.992 514.904 404.867C514.78 404.743 514.612 404.673 514.436 404.673H436.883C436.707 404.673 436.539 404.743 436.415 404.867C436.29 404.992 436.22 405.161 436.22 405.337C436.22 405.512 436.29 405.681 436.415 405.806C436.539 405.93 436.707 406 436.883 406Z" fill="#CBCBCB"/>
<path d="M510.18 223.9C509.363 222.846 508.788 221.625 508.494 220.325C508.2 219.024 508.194 217.675 508.477 216.372C508.761 215.069 509.326 213.844 510.133 212.783C510.941 211.722 511.971 210.851 513.151 210.232L508.347 178.175L523.616 185.26L525.837 214.616C526.745 216.669 526.869 218.984 526.185 221.122C525.502 223.261 524.058 225.074 522.128 226.218C520.198 227.363 517.916 227.759 515.714 227.331C513.512 226.904 511.543 225.683 510.18 223.9V223.9Z" fill="#FFB7B7"/>
<path d="M464.014 394.133L475.004 394.132L480.231 351.706L464.012 351.706L464.014 394.133Z" fill="#FFB7B7"/>
<path d="M461.211 404.796L496.646 404.794V404.346C496.646 400.685 495.193 397.173 492.606 394.585C490.02 391.996 486.512 390.541 482.854 390.541H482.853L461.21 390.542L461.211 404.796Z" fill="#2F2E41"/>
<path d="M424.733 368.831L434.996 372.788L455.127 335.049L439.98 329.21L424.733 368.831Z" fill="#FFB7B7"/>
<path d="M418.283 377.779L451.376 390.537L451.537 390.118C452.853 386.699 452.758 382.897 451.273 379.548C449.788 376.199 447.034 373.578 443.618 372.26L443.618 372.26L423.406 364.468L418.283 377.779Z" fill="#2F2E41"/>
<path d="M495.953 198.989L499.059 216.919L449.373 368.182L422.848 360.078L441.801 304.286L460.953 221.56L461.368 192.073L495.953 198.989Z" fill="#2F2E41"/>
<path d="M485.025 386.084L476.077 324.84L477.52 313.282L461.368 277.803L463.229 193.712L428.008 198.989L441.801 307.301L459.764 370.914L463.373 384.639L485.025 386.084Z" fill="#2F2E41"/>
<path d="M479.612 53.4302C468.451 53.4302 459.404 44.3745 459.404 33.2037C459.404 22.0329 468.451 12.9772 479.612 12.9772C490.773 12.9772 499.821 22.0329 499.821 33.2037C499.821 44.3745 490.773 53.4302 479.612 53.4302Z" fill="#FFB8B8"/>
<path d="M459.666 11.682C462.89 6.44123 467.938 2.57937 473.836 0.839691L478.168 4.30862L476.484 0.262501C477.9 0.046226 479.334 -0.0366973 480.766 0.014808L484.664 5.03099L483.051 0.186628C486.433 0.607333 489.692 1.72493 492.621 3.46895C495.55 5.21296 498.087 7.54557 500.071 10.3197C505.032 17.4796 504.7 27.4324 499.82 34.6484C498.481 30.5283 498.024 26.6667 496.685 22.5466C495.632 22.6902 494.565 22.6954 493.511 22.5621L491.881 18.7561L491.426 22.4011C486.375 21.9606 478.883 20.9936 474.094 20.1075L474.56 17.3114L471.774 19.635C470.307 19.2969 469.436 18.9904 469.508 18.7561C465.946 24.5027 462.417 28.1732 458.856 33.9197C457.504 25.814 455.117 19.0763 459.666 11.682Z" fill="#2F2E41"/>
<path d="M440.351 58.6448C440.351 58.6448 478.836 55.2206 495.681 69.2131L500.903 194.654L498.023 204.443C498.023 204.443 484.248 207.195 467.532 202.449C450.817 197.702 428.008 204.443 428.008 204.443L425.556 127.632L440.351 58.6448Z" fill="#CBCBCB"/>
<path d="M497.007 196.98L484.997 74.9465L487.264 64.4237C487.264 64.4237 510.435 70.9734 518.877 83.4102L503.639 189.161V198.989L497.007 196.98Z" fill="#3F3D56"/>
<path d="M443.164 188.875C443.164 188.875 475.386 79.4783 463.823 59.4901C463.823 59.4901 440.564 52.9255 429.451 61.0224L423.296 128.213C423.296 128.213 410.947 166.63 420.416 175.664L418.338 184.699C418.338 184.699 430.971 185.444 433.677 185.794C436.382 186.144 443.164 188.875 443.164 188.875Z" fill="#3F3D56"/>
<path d="M511.694 82.6863L518.877 83.4102C518.877 83.4102 521.46 84.8139 521.142 91.0528C520.825 97.2918 528.596 188.717 524.71 194.654L526.959 202.397L511.081 206.732L510.138 198.989C510.138 198.989 503.706 178.975 502.883 173.891C502.06 168.807 511.694 82.6863 511.694 82.6863Z" fill="#3F3D56"/>
<path d="M432.856 187.354C432.886 186.021 432.623 184.698 432.086 183.477C431.549 182.257 430.752 181.169 429.75 180.29C428.747 179.411 427.565 178.763 426.285 178.392C425.006 178.02 423.66 177.933 422.344 178.138L407.149 149.511L399.088 164.299L414.753 189.216C415.244 191.407 416.52 193.342 418.341 194.653C420.161 195.965 422.399 196.563 424.631 196.333C426.862 196.104 428.932 195.063 430.448 193.408C431.964 191.753 432.821 189.599 432.856 187.354Z" fill="#FFB7B7"/>
<path d="M438.729 64.5716L430.173 61.0223C430.173 61.0223 416.241 68.6016 415.125 76.0841C414.008 83.5667 386.437 132.007 386.437 132.007C386.437 132.007 396.295 175.131 405.151 177.748L409.965 183.064L423.263 174.488L418.954 170.176C418.954 170.176 419.067 147.363 415.094 143.276C415.094 143.276 426.278 114.629 431.33 111.739C436.382 108.85 438.729 64.5716 438.729 64.5716Z" fill="#3F3D56"/>
</svg>
